HIERARCHY
ROOT pelvis
{
  OFFSET 0 100 0
  CHANNELS 6 Xposition Yposition Zposition Zrotation Xrotation Yrotation
  JOINT pelvis_right_femur
  {
    OFFSET -10.78128 -3.44521 -0.5502486
    CHANNELS 3 Zrotation Xrotation Yrotation
    JOINT right_femur_tibia
    {
      OFFSET -0.8047443 -44.0398 -0.1307829
      CHANNELS 3 Zrotation Xrotation Yrotation
      JOINT right_tibia_foot
      {
        OFFSET 3.006224 -47.83518 -5
        CHANNELS 3 Zrotation Xrotation Yrotation
        End Site
        {
          OFFSET 0 -5 15
        }
      }
    }
  }
  JOINT pelvis_left_femur
  {
    OFFSET 10.78128 -3.44521 -0.5502486
    CHANNELS 3 Zrotation Xrotation Yrotation
    JOINT left_femur_tibia
    {
      OFFSET 0.8047443 -44.0398 -0.1307829
      CHANNELS 3 Zrotation Xrotation Yrotation
      JOINT left_tibia_foot
      {
        OFFSET -4.370144 -48.10324 -4.275266
        CHANNELS 3 Zrotation Xrotation Yrotation
        End Site
        {
          OFFSET 0 -5 15
        }
      }
    }
  }
  JOINT pelvis_spine1
  {
    OFFSET 0 6.468898 -3.129235
    CHANNELS 3 Zrotation Xrotation Yrotation
    JOINT spine1
    {
      OFFSET 0 23.15396 4.99043
      CHANNELS 3 Zrotation Xrotation Yrotation
      JOINT spine2
      {
        OFFSET 0 20.79997 -5.064912
        CHANNELS 3 Zrotation Xrotation Yrotation
        JOINT neck
        {
          OFFSET 0 14.38658 9.616178
          CHANNELS 3 Zrotation Xrotation Yrotation
          End Site
          {
            OFFSET 0 20 0
          }
        }
      }
      JOINT right_manubrium
      {
        OFFSET -5.722621 16.35077 3.967754
        CHANNELS 3 Zrotation Xrotation Yrotation
        JOINT right_clavicle
        {
          OFFSET -13.16364 1.694482 -4.693211
          CHANNELS 3 Zrotation Xrotation Yrotation
          JOINT right_humerus
          {
            OFFSET -28.5034 -0.3100689 -2.792744
            CHANNELS 3 Zrotation Xrotation Yrotation
            JOINT right_radius
            {
              OFFSET -25.15693 0.02248979 -1.271978
              CHANNELS 3 Zrotation Xrotation Yrotation
              End Site
              {
                OFFSET -15 0 0
              }
            }
          }
        }
      }
      JOINT left_manubrium
      {
        OFFSET 5.722621 16.35077 3.967754
        CHANNELS 3 Zrotation Xrotation Yrotation
        JOINT left_clavicle
        {
          OFFSET 13.16364 1.694482 -4.693211
          CHANNELS 3 Zrotation Xrotation Yrotation
          JOINT left_humerus
          {
            OFFSET 29.39168 -1.063119 -2.237045
            CHANNELS 3 Zrotation Xrotation Yrotation
            JOINT left_radius
            {
              OFFSET 24.59957 -0.9528479 0.9047498
              CHANNELS 3 Zrotation Xrotation Yrotation
              End Site
              {
                OFFSET 15 -0 -0
              }
            }
          }
        }
      }
    }
  }
}
MOTION
Frames: 7
Frame Time: 0.0416666666667
463.1376 104.8159 3103.907 0.8033707 -6.088162 8.459121 6.029258 -5.827472 4.645131 -0 13.52969 -0 -3.596894 -3.596936 -5.262779 -2.607615 -0.5045738 -5.949578 -0 58.79344 -0 -6.607294 -6.161116 14.99488 -0.6454809 -1.922943 7.438907 1.174497 13.96123 -7.947501 -1.302978 20.65834 5.190003 5.735549 -16.13179 0.9155038 0.3076175 -23.27685 12.10582 89.70027 25.701 -19.13173 -0 0 19.26571 -19.09991 8.55949 3.145878 6.767066 -28.79773 -9.379697 -89.97317 5.898893 23.40539 0 0 -16.72219 14.77858 10.43685 -8.297963
463.8342 105.8005 3109.774 1.365754 -6.718807 7.725322 5.312413 -0.311217 4.193025 -0 12.05308 -0 -4.222102 -6.032603 -4.27291 -2.052617 -7.46437 -5.734259 -0 57.84977 -0 -6.287397 -6.084225 16.07912 -0.5212361 -2.000497 8.000046 1.1981 14.04913 -7.712521 -1.404446 20.48019 5.117531 5.744817 -15.74225 0.7178402 0.4694617 -24.21586 12.23607 88.87609 25.57797 -17.91379 -0 0 20.75457 -18.81462 8.661044 3.473391 6.034017 -28.50132 -9.492965 -91.25313 5.769399 26.45212 0 0 -13.84656 13.92888 10.30919 -6.677057
464.5255 106.2418 3115.328 1.654874 -6.947688 7.061889 4.834785 4.719681 3.702383 -0 10.23501 -0 -4.514918 -8.496566 -3.304003 -1.031259 -13.88975 -5.131165 -0 52.08998 -0 -5.86752 -6.410131 17.25565 -0.423289 -2.086987 8.53102 1.147382 14.13612 -7.413433 -1.497726 20.2777 5.103791 5.85419 -15.2528 0.5073497 0.7717574 -25.06692 12.35673 87.93478 25.5735 -16.62516 -0 0 22.24633 -18.6161 8.823095 3.923181 5.361168 -28.22592 -9.633323 -92.50544 5.535649 29.36454 0 0 -11.09569 13.07784 10.12913 -4.953206
465.2649 106.0381 3120.729 1.492151 -6.759417 6.419696 4.75177 8.973499 3.222493 -0 8.781956 -0 -4.565356 -11.1713 -2.417224 0.4164268 -19.21817 -4.215484 -0 42.70802 -0 -5.426305 -6.678127 18.3435 -0.3621912 -2.188614 8.992384 1.003935 14.22908 -7.051921 -1.577173 20.06076 5.170263 6.085707 -14.68544 0.294088 1.217599 -25.77366 12.46912 86.92202 25.67597 -15.3393 -0 0 23.65045 -18.57624 9.013372 4.51635 4.800666 -28.00294 -9.811101 -93.64669 5.209796 31.96244 0 0 -8.614955 12.27861 9.901064 -3.210966
466.1164 105.2554 3126.144 0.9686627 -6.25578 5.76225 4.888372 12.33056 2.750845 -0 8.244213 -0 -4.469385 -13.88311 -1.598671 1.8875 -23.08468 -3.291106 -0 32.08405 -0 -5.030483 -6.651595 19.12478 -0.3427693 -2.306292 9.348742 0.7645071 14.32677 -6.644329 -1.635311 19.84562 5.319891 6.433358 -14.08293 0.09285275 1.775373 -26.29247 12.57017 85.91174 25.87492 -14.1439 -0 0 24.87393 -18.74593 9.189452 5.239371 4.399775 -27.85189 -10.01566 -94.58808 4.820867 34.07135 0 0 -6.536926 11.59407 9.64557 -1.57805
467.1283 104.1026 3131.738 0.3720822 -5.609767 5.089599 4.877019 14.90376 2.301474 -0 8.942791 -0 -4.320607 -16.01276 -0.8127569 2.822222 -25.40328 -2.771434 -0 22.79153 -0 -4.722884 -6.381741 19.52591 -0.3647563 -2.433509 9.568313 0.4392036 14.4206 -6.21798 -1.661889 19.65471 5.538021 6.866333 -13.50066 -0.07617431 2.388662 -26.59113 12.65128 84.99226 26.165 -13.12734 -0 0 25.82818 -19.14915 9.311979 6.04792 4.196982 -27.77505 -10.21776 -95.24514 4.41331 35.53077 0 0 -4.968676 11.09055 9.405065 -0.2134971
468.3215 102.851 3137.658 0.02747124 -4.998865 4.432007 4.37262 16.9764 1.90522 -0 10.95886 -0 -4.215575 -16.7299 -0.04162317 2.802761 -26.36249 -2.986692 -0 16.54538 -0 -4.519014 -6.132954 19.6611 -0.4232633 -2.559107 9.634714 0.04891862 14.49792 -5.804246 -1.648761 19.5076 5.796909 7.341512 -12.98209 -0.1979208 2.999292 -26.65576 12.70077 84.23565 26.55289 -12.35491 -0 0 26.45723 -19.76892 9.36159 6.873223 4.211616 -27.76233 -10.38038 -95.56286 4.026361 36.24177 0 0 -3.968269 10.81484 9.227751 0.7461698
